<svg xmlns="http://www.w3.org/2000/svg" xmlns:xlink="http://www.w3.org/1999/xlink" fill="none" version="1.1" width="113" height="45" viewBox="0 0 113 45"><defs><clipPath id="master_svg0_2878_2801"><rect x="0" y="0" width="113" height="45" rx="0"/></clipPath></defs><g clip-path="url(#master_svg0_2878_2801)"><g><g><path d="M51.76429715820312,16.614715576171875L51.76429715820312,18.060655576171875L45.318487158203126,18.060655576171875L45.318487158203126,21.674465576171876L51.38425715820313,21.674465576171876L51.38425715820313,23.120415576171876L45.318487158203126,23.120415576171876L45.318487158203126,27.079515576171875L51.76429715820312,27.079515576171875L51.76429715820312,28.525415576171874L43.633087158203125,28.525415576171874L43.633087158203125,16.616808556171875L51.76429715820312,16.616808556171875L51.76429715820312,16.614715576171875Z" fill="#FFFFFF" fill-opacity="1"/></g><g><path d="M53.186309814453125,22.561693232421874C53.186309814453125,18.964623232421875,55.35174981445312,16.402313232421875,58.80571981445313,16.402313232421875C62.25969981445313,16.402313232421875,64.42510981445312,18.964623232421875,64.42510981445312,22.561693232421874C64.42510981445312,26.158763232421876,62.25969981445313,28.737813232421875,58.80571981445313,28.737813232421875C55.35174981445312,28.737813232421875,53.186306601803125,26.158763232421876,53.186309814453125,22.561693232421874ZM62.70605981445313,22.561693232421874C62.70605981445313,19.489853232421876,60.98695981445312,17.814773232421874,58.80572981445312,17.814773232421874C56.624499814453124,17.814773232421874,54.90540981445312,19.489853232421876,54.90540981445312,22.561693232421874C54.90540981445312,25.633543232421875,56.624499814453124,27.325313232421877,58.80572981445312,27.325313232421877C60.98695981445312,27.325313232421877,62.70605981445313,25.633533232421875,62.70605981445313,22.561693232421874Z" fill="#FFFFFF" fill-opacity="1"/></g><g><path d="M74.98617426757812,19.654064599609374L73.35024426757812,19.654064599609374C72.93758426757813,18.274034599609376,71.58168426757813,17.814724599609374,70.37526426757813,17.814724599609374C69.44992426757813,17.814724599609374,67.82978426757812,18.224864599609376,67.82978426757812,19.555714599609374C67.82978426757812,20.607214599609375,68.67301426757813,21.132444599609375,69.78047426757813,21.379364599609374L71.16901426757812,21.691144599609373C73.00390426757812,22.085594599609376,75.20198426757813,22.775084599609375,75.20198426757813,25.173124599609373C75.20198426757813,27.571214599609377,73.02075426757813,28.737714599609376,70.64054426757812,28.737714599609376C67.81399426757812,28.737714599609376,66.02963626757813,27.210214599609372,65.71487426757812,24.827864599609377L67.36764426757813,24.827864599609377C67.68135426757813,26.470514599609373,68.83829426757812,27.324214599609377,70.67318426757812,27.324214599609377C72.50808426757813,27.324214599609377,73.46605426757813,26.486214599609376,73.46605426757813,25.320654599609377C73.46605426757813,24.072454599609376,72.39122426757812,23.546184599609376,70.88794426757812,23.217654599609375L69.40045426757813,22.905864599609373C67.76453426757813,22.544904599609374,66.11175826757813,21.640924599609374,66.11175826757813,19.654064599609374C66.11175826757813,17.386799599609375,68.50775426757812,16.401214599609375,70.44159426757813,16.401214599609375C72.59019426757813,16.401214599609375,74.52404426757812,17.354365599609373,74.98617426757812,19.654064599609374Z" fill="#FFFFFF" fill-opacity="1"/></g><g><path d="M88.80328872070312,16.614662633359377L88.80328872070312,17.632676943359375L82.22483872070312,17.632676943359375L82.22483872070312,21.837636943359374L88.40641872070313,21.837636943359374L88.40641872070313,22.872396943359377L82.22484872070312,22.872396943359377L82.22484872070312,27.504216943359374L88.80328872070312,27.504216943359374L88.80328872070312,28.522216943359375L81.11843872070312,28.522216943359375L81.11843872070312,16.613616943359375L88.80328872070312,16.613616943359375L88.80328872070312,16.614662633359377Z" fill="#FFFFFF" fill-opacity="1"/></g><g><path d="M95.11654223632813,27.160992138671872L98.81896223632812,16.615692138671875L100.00853223632812,16.615692138671875L95.71132223632813,28.524292138671875L94.43858223632813,28.524292138671875L90.12454223632812,16.615692138671875L91.34780223632812,16.615692138671875L95.11654223632813,27.160992138671872Z" fill="#FFFFFF" fill-opacity="1"/></g><g><path d="M102.63703153320313,17.666215576171876L102.63703153320313,28.523315576171875L101.52957153320312,28.523315576171875L101.52957153320312,16.614715576171875L103.31499153320313,16.614715576171875L107.28163153320313,27.275115576171874L111.23144153320312,16.614717172651876L112.99997153320312,16.614717172651876L112.99997153320312,28.523315576171875L111.89257153320312,28.523315576171875L111.89257153320312,17.666215576171876L107.82695153320313,28.523315576171875L106.70264153320312,28.523315576171875L102.63703153320313,17.666215576171876Z" fill="#FFFFFF" fill-opacity="1"/></g></g><g><path d="M25.19826875,13.759536328125L15.19746875,44.972836328125L14.95936875,44.896536328125L14.82716875,44.684336328125L29.66636875,35.442636328125L29.79846875,35.654836328125L29.55436875,35.708636328125L24.71606875,13.736936328125L24.96016875,13.683236328125L24.75886875,13.831436328125L14.75806875,0.252994328125L14.95936875,0.104736328125L15.20936875,0.104736328125L15.20936875,9.628916328125L14.95936875,9.628916328125L15.17656875,9.505086328125L30.01566875,35.531036328125Q30.04026875,35.574236328125,30.04646875,35.623536328125Q30.05276875,35.672836328125,30.03956875,35.720836328125Q30.02646875,35.768836328125,29.99596875,35.808136328125Q29.96546875,35.847336328125,29.92226875,35.872036328125Q29.87906875,35.896636328125,29.82976875,35.902836328125Q29.78046875,35.909136328125,29.73246875,35.895936328125Q29.68446875,35.882836328125,29.64516875,35.852336328125Q29.60596875,35.821836328125,29.58126875,35.778636328125L14.74216875,9.752746328125Q14.70936875,9.695176328125,14.70936875,9.628916328125L14.70936875,0.104736328125Q14.70936875,0.045146128125,14.73626875,-0.008036671874999998Q14.76306875,-0.06121967187499999,14.81106875,-0.096558671875Q14.85116875,-0.126048671875,14.89936875,-0.137971671875Q14.94766875,-0.149894671875,14.99686875,-0.142434671875Q15.04596875,-0.134974671875,15.08856875,-0.109268671875Q15.13116875,-0.083561671875,15.16066875,-0.043521671875L25.16146875,13.534936328125Q25.19296875,13.577636328125,25.20436875,13.629436328125L30.04266875,35.601036328125Q30.05096875,35.638936328125,30.04746875,35.677536328125Q30.04396875,35.716136328125,30.02886875,35.751836328125Q30.01386875,35.787536328125,29.98866875,35.817036328125Q29.96356875,35.846536328125,29.93066875,35.867036328125L15.09146875,45.108736328125Q15.04476875,45.137836328125,14.99016875,45.144636328125Q14.93546875,45.151436328125,14.88306875,45.134636328125Q14.83566875,45.119436328125,14.79776875,45.087236328125Q14.75976875,45.055136328125,14.73706875,45.010936328125Q14.71426875,44.966736328125,14.71016875,44.917136328125Q14.70606875,44.867636328125,14.72126875,44.820236328125L24.72206875,13.606936328125Q24.73726875,13.559536328125,24.76936875,13.521636328125Q24.80156875,13.483636328125,24.84576875,13.460936328125Q24.88996875,13.438136328125,24.93956875,13.434036328125Q24.98906875,13.429936328125,25.03646875,13.445136328125Q25.08386875,13.460336328125,25.12176875,13.492436328125Q25.15966875,13.524536328125,25.18246875,13.568836328125Q25.20526875,13.613036328125,25.20936875,13.662536328125Q25.21346875,13.712136328125,25.19826875,13.759536328125ZM29.79846875,35.904836328125L0.10546875,35.904836328125Q0.05574065,35.904836328125,0.00979795,35.885836328125Q-0.03614524999999999,35.866736328125,-0.07130824999999999,35.831636328125Q-0.10647124999999999,35.796436328125,-0.12550125,35.750536328125Q-0.14453125,35.704536328125,-0.14453125,35.654836328125Q-0.14453125,35.605136328125,-0.12550125,35.559136328125Q-0.10647124999999999,35.513236328125,-0.07130824999999999,35.478036328125Q-0.03614524999999999,35.442936328125,0.00979795,35.423836328125Q0.05574065,35.404836328125,0.10546875,35.404836328125L29.79846875,35.404836328125Q29.84816875,35.404836328125,29.89416875,35.423836328125Q29.94006875,35.442936328125,29.97526875,35.478036328125Q30.01036875,35.513236328125,30.02946875,35.559136328125Q30.04846875,35.605136328125,30.04846875,35.654836328125Q30.04846875,35.704536328125,30.02946875,35.750536328125Q30.01036875,35.796436328125,29.97526875,35.831636328125Q29.94006875,35.866736328125,29.89416875,35.885836328125Q29.84816875,35.904836328125,29.79846875,35.904836328125ZM-0.11171025000000001,35.531036328125L14.72746875,9.505086328125L14.94456875,9.628916328125L14.69456875,9.628916328125L14.69456875,0.104736328125L14.94456875,0.104736328125L15.14586875,0.252994328125L5.14506875,13.831436328125L4.94376875,13.683236328125L5.18791875,13.736936328125L0.34961975,35.708636328125L0.10546875,35.654836328125L0.23762075,35.442636328125L15.07676875,44.683236328125L14.94456875,44.895436328125L14.70656875,44.971736328125L4.70568875,13.759536328125Q4.69051875,13.712136328125,4.69461875,13.662536328125Q4.69872875,13.613036328125,4.72147875,13.568836328125Q4.74423875,13.524536328125,4.78217875,13.492436328125Q4.82012875,13.460336328125,4.86748875,13.445136328125Q4.91483875,13.429936328125,4.96439875,13.434036328125Q5.01395875,13.438136328125,5.05817875,13.460936328125Q5.10238875,13.483636328125,5.13452875,13.521636328125Q5.16666875,13.559536328125,5.18184875,13.606936328125L15.18266875,44.819236328125Q15.19946875,44.871636328125,15.19266875,44.926236328125Q15.18596875,44.980936328125,15.15686875,45.027636328125Q15.13056875,45.069836328125,15.09006875,45.098736328125Q15.04966875,45.127736328125,15.00126875,45.139036328125Q14.95276875,45.150236328125,14.90376875,45.142136328125Q14.85466875,45.133936328125,14.81246875,45.107736328125L-0.02668324999999999,35.867036328125Q-0.05958725000000001,35.846536328125,-0.08474124999999999,35.817036328125Q-0.10989525,35.787536328125,-0.12493825,35.751836328125Q-0.13998025,35.716136328125,-0.14349925,35.677536328125Q-0.14701725,35.638936328125,-0.13868225,35.601036328125L4.69961875,13.629436328125Q4.71101875,13.577636328125,4.74247875,13.534936328125L14.74326875,-0.043521671875Q14.77866875,-0.091502671875,14.83186875,-0.11838267187500001Q14.88496875,-0.145263671875,14.94456875,-0.145263671875Q14.99436875,-0.145263671875,15.04026875,-0.126233671875Q15.08616875,-0.10720367187499999,15.12136875,-0.07204067187499999Q15.15656875,-0.03687767187499999,15.17556875,0.009065528125Q15.19456875,0.055008228125,15.19456875,0.104736328125L15.19456875,9.628916328125Q15.19456875,9.695176328125,15.16176875,9.752746328125L0.32264775,35.778636328125Q0.29801675,35.821836328125,0.25872875,35.852336328125Q0.21944075000000002,35.882836328125,0.17147745,35.895936328125Q0.12351405,35.909136328125,0.07417705,35.902836328125Q0.024840050000000002,35.896636328125,-0.018359249999999994,35.872036328125Q-0.06155925000000001,35.847336328125,-0.09204425,35.808136328125Q-0.12252925,35.768836328125,-0.13565925,35.720836328125Q-0.14878924999999998,35.672836328125,-0.14256525,35.623536328125Q-0.13634125,35.574236328125,-0.11171025000000001,35.531036328125Z" fill="#FFFFFF" fill-opacity="1"/></g></g></svg>