<svg width="12" height="12" viewBox="0 0 12 12" fill="none" xmlns="http://www.w3.org/2000/svg">
<path fill="#B1B1B1" d="M10.0833 6.67318V10.1732C10.0833 10.4826 9.96042 10.7793 9.74162 10.9981C9.52283 11.2169 9.22609 11.3398 8.91667 11.3398H1.91667C1.60725 11.3398 1.3105 11.2169 1.09171 10.9981C0.872916 10.7793 0.75 10.4826 0.75 10.1732V3.17318C0.75 2.86376 0.872916 2.56701 1.09171 2.34822C1.3105 2.12943 1.60725 2.00651 1.91667 2.00651H5.41667V3.17318H1.91667V10.1732H8.91667V6.67318H10.0833ZM6.58333 0.839844V2.00651H9.2585L4.71258 6.55243L5.53742 7.37726L10.0833 2.83134V5.50651H11.25V0.839844H6.58333Z"/>
</svg>
